<?xml version="1.0" standalone="no"?>
<!DOCTYPE svg PUBLIC "-//W3C//DTD SVG 20010904//EN"
 "http://www.w3.org/TR/2001/REC-SVG-20010904/DTD/svg10.dtd">
<svg version="1.0" xmlns="http://www.w3.org/2000/svg"
 width="553.000000pt" height="451.000000pt" viewBox="0 0 553.000000 451.000000"
 preserveAspectRatio="xMidYMid meet">

<g transform="translate(0.000000,451.000000) scale(0.100000,-0.100000)"
fill="#000000" stroke="none">
<path d="M2463 4499 c-257 -43 -444 -269 -446 -539 -1 -158 47 -278 157 -395
65 -68 91 -120 102 -208 5 -35 3 -52 -9 -65 -40 -45 -28 -136 24 -173 l30 -21
-24 -18 c-23 -18 -53 -19 -533 -22 -501 -3 -510 -3 -550 -25 -22 -12 -55 -35
-73 -52 l-32 -30 -307 293 c-386 368 -404 384 -446 391 -71 14 -94 0 -214
-124 -128 -132 -150 -173 -133 -238 12 -43 76 -107 651 -653 107 -101 241
-229 298 -284 l102 -100 0 -766 0 -766 26 -52 c14 -29 44 -67 66 -86 75 -64
88 -66 520 -66 l388 0 0 -77 c-1 -105 -31 -143 -117 -143 -21 0 -49 -7 -61
-16 -20 -14 -22 -23 -22 -120 0 -161 -83 -144 709 -144 799 0 721 -16 721 145
0 119 -3 124 -83 136 -77 12 -97 41 -97 142 l0 77 383 1 c266 0 392 4 414 12
60 22 117 72 148 128 l30 54 3 762 2 762 103 74 c56 40 208 150 337 244 129
93 398 288 598 432 452 328 443 316 342 456 -63 86 -74 95 -122 95 -50 0 -76
-14 -206 -109 -270 -197 -981 -709 -1012 -730 l-35 -23 36 34 c20 18 209 185
421 371 384 337 418 372 418 432 0 23 -66 112 -124 164 -30 28 -78 32 -124 9
-16 -8 -191 -157 -390 -332 l-361 -317 -60 21 c-58 19 -84 20 -576 20 -497 0
-516 1 -535 20 -19 19 -19 19 15 53 29 29 35 43 35 76 0 23 -7 56 -16 73 -18
34 -14 79 13 163 11 36 35 70 84 122 109 116 159 237 159 390 0 212 -119 404
-305 493 -113 54 -207 68 -322 49z m259 -88 c211 -82 344 -324 299 -544 -18
-81 -75 -190 -131 -246 -65 -65 -96 -115 -116 -188 l-17 -63 -208 0 -207 0 -7
36 c-12 68 -52 141 -115 209 -100 111 -140 209 -140 345 0 41 6 98 14 125 43
162 173 294 336 341 69 20 222 12 292 -15z m2122 -852 c72 -78 74 -101 10
-161 -25 -24 -51 -43 -58 -43 -6 0 -46 39 -88 86 l-77 86 32 30 c87 81 108 81
181 2z m-4396 -90 c37 -34 73 -68 81 -75 12 -11 -8 -35 -119 -153 l-133 -140
-69 61 c-79 70 -91 88 -91 140 0 33 10 48 69 114 123 138 160 146 262 53z
m4200 -38 c28 -32 63 -73 78 -91 l28 -32 -21 -17 c-12 -9 -48 -40 -81 -68
l-60 -53 -81 93 -82 92 73 67 c40 37 78 67 84 68 6 0 34 -26 62 -59z m720 11
c41 -41 82 -112 82 -141 0 -25 -10 -38 -57 -75 l-56 -45 -57 78 c-101 137 -98
120 -33 164 62 41 94 46 121 19z m-147 -187 c38 -52 67 -99 64 -105 -8 -12
-165 -123 -169 -119 -47 59 -137 192 -134 199 3 11 149 119 161 120 4 0 39
-43 78 -95z m-4511 -69 c0 -9 -57 -77 -126 -152 -121 -129 -128 -134 -145
-118 -24 22 -24 37 2 60 12 10 57 59 102 107 l80 88 -21 22 -22 21 -107 -113
-108 -113 -22 24 -23 24 137 143 137 143 58 -60 c32 -33 58 -67 58 -76z m3763
45 c42 -50 77 -93 76 -98 0 -4 -102 -97 -227 -206 l-227 -198 -3 38 c-6 92
-15 125 -47 172 l-35 50 188 165 c103 91 189 165 192 165 3 1 40 -39 83 -88z
m-1713 13 c0 -37 -5 -51 -29 -75 l-29 -29 -157 0 c-152 0 -156 1 -180 25 -20
19 -25 34 -25 75 l0 50 210 0 210 0 0 -46z m2249 -151 c64 -87 69 -98 53 -109
-9 -7 -228 -165 -487 -352 -258 -187 -471 -339 -471 -339 -1 1 -4 68 -7 149
l-6 147 262 190 c144 104 330 239 412 300 83 60 155 110 162 110 6 1 43 -43
82 -96z m-4083 -91 l141 -137 -11 -55 -11 -55 -168 160 -167 159 32 33 c17 18
34 33 37 33 4 -1 69 -63 147 -138z m1778 67 c22 -18 26 -28 26 -74 0 -46 -4
-56 -27 -75 -26 -20 -37 -21 -166 -18 -132 3 -140 4 -158 27 -21 26 -26 90 -8
122 16 32 45 38 180 38 113 1 129 -1 153 -20z m-1816 -227 l163 -157 -3 -64
-3 -63 -212 202 c-117 111 -213 205 -213 210 0 5 12 22 26 39 l26 31 26 -20
c15 -11 100 -91 190 -178z m1387 108 c9 -40 51 -89 92 -106 22 -10 79 -14 185
-14 130 0 159 3 188 19 41 21 80 74 80 108 l0 24 518 -3 518 -3 49 -26 c35
-18 59 -39 80 -74 l30 -48 3 -1024 c2 -706 -1 -1037 -8 -1064 -6 -22 -27 -57
-46 -79 -69 -76 46 -70 -1391 -70 l-1290 0 -44 23 c-24 13 -57 43 -74 66 l-30
43 -3 1036 c-2 719 0 1048 8 1074 19 67 79 120 155 139 17 4 242 7 502 8 l471
1 7 -30z m-1454 -241 l227 -214 1 -69 1 -68 -137 130 c-76 71 -196 186 -268
255 l-130 125 30 31 c16 17 34 30 39 28 6 -2 112 -100 237 -218z m2179 -2292
c0 -141 41 -197 155 -212 l55 -6 0 -50 0 -49 -635 0 -635 0 0 49 0 49 58 7
c119 14 161 71 162 218 l0 87 420 0 420 0 0 -93z"/>
<path d="M1341 2796 c-52 -29 -50 1 -51 -914 l0 -852 1283 2 1282 3 0 858 0
859 -33 29 -32 29 -1213 0 c-987 -1 -1216 -3 -1236 -14z m1100 -295 c36 -37
39 -71 6 -71 -16 0 -28 9 -35 26 -10 20 -18 25 -40 22 -22 -2 -27 -8 -27 -32
0 -25 6 -30 50 -47 60 -23 85 -50 85 -95 0 -68 -80 -113 -150 -84 -31 13 -60
54 -60 85 0 26 45 18 58 -10 15 -33 57 -43 82 -20 11 10 20 23 20 30 0 18 -31
41 -72 54 -44 14 -78 53 -78 88 0 38 51 83 95 83 27 0 44 -8 66 -29z m459 10
c32 -17 80 -72 80 -92 0 -5 -13 -9 -30 -9 -19 0 -33 7 -40 21 -7 11 -27 27
-47 35 -47 20 -97 4 -124 -40 -66 -108 69 -214 163 -129 29 26 21 33 -37 33
-52 0 -55 1 -55 25 0 25 1 25 90 25 103 0 106 -3 68 -80 -17 -33 -35 -51 -68
-68 -164 -84 -313 129 -178 255 48 45 120 55 178 24z m-1002 -5 c54 -28 75
-62 79 -124 7 -107 -48 -162 -164 -162 l-63 0 0 150 0 150 60 0 c34 0 73 -6
88 -14z m322 -11 c0 -24 -3 -25 -60 -25 l-60 0 0 -35 0 -35 55 0 c52 0 55 -1
55 -25 0 -24 -3 -25 -55 -25 l-55 0 0 -40 0 -40 60 0 c57 0 60 -1 60 -25 0
-25 -1 -25 -85 -25 l-85 0 0 150 0 150 85 0 c84 0 85 0 85 -25z m380 -125 l0
-150 -25 0 -25 0 0 150 0 150 25 0 25 0 0 -150z m570 48 l60 -102 0 102 0 102
25 0 25 0 0 -151 0 -150 -27 3 c-23 2 -37 19 -83 98 l-55 95 -3 -97 -3 -98
-29 0 -30 0 0 150 0 150 30 0 c27 0 35 -9 90 -102z m-1261 -363 c16 -8 34 -28
40 -46 14 -41 15 -39 -17 -39 -19 0 -30 7 -37 23 -12 27 -47 34 -64 13 -21
-25 -6 -44 51 -69 29 -13 58 -30 64 -38 74 -93 -67 -203 -156 -121 -38 34 -45
76 -13 80 15 2 25 -5 35 -25 25 -52 102 -39 96 16 -2 21 -13 29 -53 44 -60 21
-85 48 -85 91 1 70 72 106 139 71z m1301 -13 c133 -98 60 -305 -102 -290 -117
12 -180 124 -126 228 43 83 157 114 228 62z m-1020 -7 c0 -22 -4 -25 -35 -25
l-35 0 0 -130 0 -130 -25 0 -25 0 0 130 0 130 -35 0 c-31 0 -35 3 -35 25 0 25
0 25 95 25 95 0 95 0 95 -25z m112 -91 c3 -101 6 -117 22 -130 26 -18 51 -18
70 2 13 12 16 39 16 130 l0 114 30 0 30 0 0 -110 c0 -152 -27 -200 -113 -200
-31 0 -46 7 -73 34 l-34 34 0 121 0 121 24 0 c24 0 24 -1 28 -116z m381 102
c58 -24 81 -59 85 -129 5 -104 -43 -154 -160 -164 l-58 -6 0 157 0 156 50 0
c28 0 65 -6 83 -14z m215 -138 l-3 -153 -27 -3 -28 -3 0 155 0 156 30 0 31 0
-3 -152z m-812 -324 c19 -9 44 -30 56 -47 26 -36 35 -116 18 -157 -14 -34 -73
-90 -96 -90 -11 0 -12 -4 -4 -19 14 -28 13 -31 -16 -31 -14 0 -33 9 -42 20
-10 11 -37 30 -62 43 -60 30 -95 96 -86 161 17 108 132 167 232 120z m206
-104 c3 -130 7 -140 59 -140 15 0 31 6 37 13 6 7 13 64 14 128 l3 114 28 3 27
3 0 -111 c0 -135 -13 -174 -65 -196 -49 -20 -99 -10 -130 28 -24 28 -25 36
-25 154 l0 124 24 0 c24 0 24 -1 28 -120z m413 90 c0 -23 -4 -25 -57 -28 l-58
-3 0 -34 0 -35 56 0 c52 0 55 -1 52 -22 -3 -20 -10 -23 -55 -26 l-53 -3 0 -39
0 -39 58 -3 c50 -3 57 -6 60 -25 3 -22 1 -23 -87 -23 l-91 0 0 148 c0 82 3
152 7 156 4 4 43 5 88 4 78 -3 80 -4 80 -28z m230 -1 c23 -28 31 -68 12 -61
-4 1 -15 2 -26 2 -10 0 -21 9 -24 20 -6 25 -62 28 -71 4 -11 -29 -6 -35 58
-64 91 -40 111 -89 61 -148 -58 -69 -185 -37 -185 47 0 16 6 21 25 21 15 0 25
-6 25 -15 0 -8 11 -22 25 -31 34 -22 75 -6 75 30 0 28 -12 39 -60 55 -51 17
-80 49 -80 88 0 50 37 83 94 83 37 0 48 -5 71 -31z m255 1 c0 -27 -3 -30 -30
-30 l-30 0 0 -125 0 -125 -30 0 -30 0 0 125 0 125 -30 0 c-27 0 -30 3 -30 30
l0 30 90 0 90 0 0 -30z"/>
<path d="M1810 2370 c0 -93 1 -100 20 -100 51 0 100 49 100 100 0 37 -28 77
-61 89 -59 20 -59 20 -59 -89z"/>
<path d="M3049 1981 c-58 -58 -29 -159 51 -176 41 -9 96 17 115 55 53 103 -84
202 -166 121z"/>
<path d="M2600 1911 l0 -101 29 0 c63 0 108 75 82 138 -13 32 -34 47 -79 57
l-32 7 0 -101z"/>
<path d="M1961 1537 c-32 -19 -50 -54 -51 -100 -1 -110 166 -136 200 -31 15
43 5 85 -25 114 -28 27 -91 35 -124 17z"/>
<path d="M2509 851 c-20 -20 -29 -39 -29 -61 0 -43 47 -90 90 -90 44 0 69 16
86 56 12 29 12 39 0 68 -26 64 -97 76 -147 27z"/>
</g>
</svg>
